# MagicaVoxel @ Ephtracy

# material
mtllib buddy.mtl
usemtl palette

# normals
vn -1 0 0
vn 1 0 0
vn 0 0 1
vn 0 0 -1
vn 0 -1 0
vn 0 1 0

# texcoords
vt 0.0605469 0.5
vt 0.501953 0.5
vt 0.533203 0.5
vt 0.908203 0.5
vt 0.939453 0.5
vt 0.970703 0.5
vt 0.978516 0.5
vt 0.990234 0.5

# verts
v -4 4 -0.5
v -4 4 -3.5
v -4 7 -0.5
v -4 7 -3.5
v -3 3 0.5
v -3 3 -2.5
v -3 3 -3.5
v -3 4 0.5
v -3 4 -0.5
v -3 4 -2.5
v -3 4 -3.5
v -3 4 -4.5
v -3 7 -0.5
v -3 7 -3.5
v -3 7 -4.5
v -3 8 0.5
v -3 8 -3.5
v -2 0 2.5
v -2 0 -2.5
v -2 1 2.5
v -2 1 0.5
v -2 3 0.5
v -2 3 -2.5
v -2 3 -3.5
v -2 3 -4.5
v -2 4 -3.5
v -2 4 -4.5
v -2 4 -5.5
v -2 7 -3.5
v -2 7 -4.5
v -2 7 -5.5
v -2 8 -0.5
v -2 8 -3.5
v -2 8 -4.5
v -2 9 -0.5
v -2 9 -3.5
v 1 0 2.5
v 1 0 0.5
v 1 1 2.5
v 1 1 0.5
v 3 0 -1.5
v 3 0 -3.5
v 3 1 -1.5
v 3 1 -3.5
v 4 0 2.5
v 4 0 -1.5
v 4 1 2.5
v 4 1 -1.5
v 5 0 -1.5
v 5 0 -2.5
v 5 1 -1.5
v 5 1 -2.5
v -1 0 2.5
v -1 0 0.5
v -1 1 2.5
v -1 1 0.5
v 2 0 2.5
v 2 0 0.5
v 2 0 -2.5
v 2 1 2.5
v 2 1 0.5
v 2 3 0.5
v 2 3 -2.5
v 2 3 -3.5
v 2 3 -4.5
v 2 4 -3.5
v 2 4 -4.5
v 2 4 -5.5
v 2 7 -3.5
v 2 7 -4.5
v 2 7 -5.5
v 2 8 -0.5
v 2 8 -3.5
v 2 8 -4.5
v 2 9 -0.5
v 2 9 -3.5
v 3 3 0.5
v 3 3 -2.5
v 3 3 -3.5
v 3 4 0.5
v 3 4 -0.5
v 3 4 -2.5
v 3 4 -3.5
v 3 4 -4.5
v 3 7 -0.5
v 3 7 -3.5
v 3 7 -4.5
v 3 8 0.5
v 3 8 -3.5
v 4 0 -1.5
v 4 0 -2.5
v 4 1 -1.5
v 4 1 -2.5
v 4 4 -0.5
v 4 4 -3.5
v 4 7 -0.5
v 4 7 -3.5
v 5 0 2.5
v 5 0 -1.5
v 5 1 2.5
v 5 1 -1.5
v 6 0 -1.5
v 6 0 -3.5
v 6 1 -1.5
v 6 1 -3.5
v -2 0 2.5
v -2 1 2.5
v -1 0 2.5
v -1 1 2.5
v 1 0 2.5
v 1 1 2.5
v 2 0 2.5
v 2 1 2.5
v 4 0 2.5
v 4 1 2.5
v 5 0 2.5
v 5 1 2.5
v -3 3 0.5
v -3 4 0.5
v -3 8 0.5
v -2 1 0.5
v -2 3 0.5
v -2 4 0.5
v -2 5 0.5
v -2 6 0.5
v -1 0 0.5
v -1 1 0.5
v -1 5 0.5
v -1 6 0.5
v 0 1 0.5
v 0 3 0.5
v 0 4 0.5
v 0 5 0.5
v 1 0 0.5
v 1 1 0.5
v 1 3 0.5
v 1 5 0.5
v 1 6 0.5
v 2 1 0.5
v 2 3 0.5
v 2 4 0.5
v 2 5 0.5
v 2 6 0.5
v 3 3 0.5
v 3 4 0.5
v 3 8 0.5
v -4 4 -0.5
v -4 7 -0.5
v -3 4 -0.5
v -3 7 -0.5
v -2 8 -0.5
v -2 9 -0.5
v 2 8 -0.5
v 2 9 -0.5
v 3 4 -0.5
v 3 7 -0.5
v 4 4 -0.5
v 4 7 -0.5
v 3 0 -1.5
v 3 1 -1.5
v 4 0 -1.5
v 4 1 -1.5
v 5 0 -1.5
v 5 1 -1.5
v 6 0 -1.5
v 6 1 -1.5
v 4 0 -2.5
v 4 1 -2.5
v 5 0 -2.5
v 5 1 -2.5
v 4 0 -1.5
v 4 1 -1.5
v 5 0 -1.5
v 5 1 -1.5
v -2 0 -2.5
v -2 3 -2.5
v 2 0 -2.5
v 2 3 -2.5
v -4 4 -3.5
v -4 7 -3.5
v -3 3 -3.5
v -3 4 -3.5
v -3 7 -3.5
v -3 8 -3.5
v -2 3 -3.5
v -2 4 -3.5
v -2 7 -3.5
v -2 8 -3.5
v -2 9 -3.5
v 2 3 -3.5
v 2 4 -3.5
v 2 7 -3.5
v 2 8 -3.5
v 2 9 -3.5
v 3 0 -3.5
v 3 1 -3.5
v 3 3 -3.5
v 3 4 -3.5
v 3 7 -3.5
v 3 8 -3.5
v 4 4 -3.5
v 4 7 -3.5
v 6 0 -3.5
v 6 1 -3.5
v -3 4 -4.5
v -3 7 -4.5
v -2 3 -4.5
v -2 4 -4.5
v -2 7 -4.5
v -2 8 -4.5
v 2 3 -4.5
v 2 4 -4.5
v 2 7 -4.5
v 2 8 -4.5
v 3 4 -4.5
v 3 7 -4.5
v -2 4 -5.5
v -2 7 -5.5
v 2 4 -5.5
v 2 7 -5.5
v -2 0 2.5
v -1 0 2.5
v 1 0 2.5
v 2 0 2.5
v 4 0 2.5
v 5 0 2.5
v -1 0 0.5
v 1 0 0.5
v 2 0 0.5
v 3 0 -1.5
v 4 0 -1.5
v 5 0 -1.5
v 6 0 -1.5
v -2 0 -2.5
v 2 0 -2.5
v 4 0 -2.5
v 5 0 -2.5
v 3 0 -3.5
v 6 0 -3.5
v -3 3 0.5
v -2 3 0.5
v 2 3 0.5
v 3 3 0.5
v -3 3 -2.5
v -2 3 -2.5
v 2 3 -2.5
v 3 3 -2.5
v -3 3 -3.5
v -2 3 -3.5
v 2 3 -3.5
v 3 3 -3.5
v -2 3 -4.5
v 2 3 -4.5
v -4 4 -0.5
v -3 4 -0.5
v 3 4 -0.5
v 4 4 -0.5
v -3 4 -2.5
v 3 4 -2.5
v -4 4 -3.5
v -3 4 -3.5
v -2 4 -3.5
v 2 4 -3.5
v 3 4 -3.5
v 4 4 -3.5
v -3 4 -4.5
v -2 4 -4.5
v 2 4 -4.5
v 3 4 -4.5
v -2 4 -5.5
v 2 4 -5.5
v -2 1 2.5
v -1 1 2.5
v 1 1 2.5
v 2 1 2.5
v 4 1 2.5
v 5 1 2.5
v -2 1 0.5
v -1 1 0.5
v 1 1 0.5
v 2 1 0.5
v 3 1 -1.5
v 4 1 -1.5
v 5 1 -1.5
v 6 1 -1.5
v 4 1 -2.5
v 5 1 -2.5
v 3 1 -3.5
v 6 1 -3.5
v -4 7 -0.5
v -3 7 -0.5
v 3 7 -0.5
v 4 7 -0.5
v -4 7 -3.5
v -3 7 -3.5
v -2 7 -3.5
v 2 7 -3.5
v 3 7 -3.5
v 4 7 -3.5
v -3 7 -4.5
v -2 7 -4.5
v 2 7 -4.5
v 3 7 -4.5
v -2 7 -5.5
v 2 7 -5.5
v -3 8 0.5
v 3 8 0.5
v -2 8 -0.5
v 2 8 -0.5
v -3 8 -3.5
v -2 8 -3.5
v 2 8 -3.5
v 3 8 -3.5
v -2 8 -4.5
v 2 8 -4.5
v -2 9 -0.5
v 2 9 -0.5
v -2 9 -3.5
v 2 9 -3.5

# faces
f 3/4/1 2/4/1 1/4/1
f 4/4/1 2/4/1 3/4/1
f 8/7/1 6/7/1 5/7/1
f 9/7/1 6/7/1 8/7/1
f 10/4/1 7/4/1 6/4/1
f 10/7/1 6/7/1 9/7/1
f 11/4/1 7/4/1 10/4/1
f 13/4/1 9/4/1 8/4/1
f 14/4/1 12/4/1 11/4/1
f 15/4/1 12/4/1 14/4/1
f 16/4/1 13/4/1 8/4/1
f 16/4/1 14/4/1 13/4/1
f 17/4/1 14/4/1 16/4/1
f 20/6/1 19/6/1 18/6/1
f 21/6/1 19/6/1 20/6/1
f 22/6/1 19/6/1 21/6/1
f 23/6/1 19/6/1 22/6/1
f 26/4/1 25/4/1 24/4/1
f 27/4/1 25/4/1 26/4/1
f 30/4/1 28/4/1 27/4/1
f 31/4/1 28/4/1 30/4/1
f 33/4/1 30/4/1 29/4/1
f 34/4/1 30/4/1 33/4/1
f 35/4/1 33/4/1 32/4/1
f 36/4/1 33/4/1 35/4/1
f 39/5/1 38/5/1 37/5/1
f 40/5/1 38/5/1 39/5/1
f 43/6/1 42/6/1 41/6/1
f 44/6/1 42/6/1 43/6/1
f 47/6/1 46/6/1 45/6/1
f 48/6/1 46/6/1 47/6/1
f 51/6/1 50/6/1 49/6/1
f 52/6/1 50/6/1 51/6/1
f 53/6/2 54/6/2 55/6/2
f 55/6/2 54/6/2 56/6/2
f 57/5/2 58/5/2 60/5/2
f 58/6/2 59/6/2 61/6/2
f 60/5/2 58/5/2 61/5/2
f 61/6/2 59/6/2 62/6/2
f 62/6/2 59/6/2 63/6/2
f 64/4/2 65/4/2 66/4/2
f 66/4/2 65/4/2 67/4/2
f 67/4/2 68/4/2 70/4/2
f 70/4/2 68/4/2 71/4/2
f 69/4/2 70/4/2 73/4/2
f 73/4/2 70/4/2 74/4/2
f 72/4/2 73/4/2 75/4/2
f 75/4/2 73/4/2 76/4/2
f 77/7/2 78/7/2 80/7/2
f 80/7/2 78/7/2 81/7/2
f 78/4/2 79/4/2 82/4/2
f 81/7/2 78/7/2 82/7/2
f 82/4/2 79/4/2 83/4/2
f 80/4/2 81/4/2 85/4/2
f 83/4/2 84/4/2 86/4/2
f 86/4/2 84/4/2 87/4/2
f 80/4/2 85/4/2 88/4/2
f 85/4/2 86/4/2 88/4/2
f 88/4/2 86/4/2 89/4/2
f 90/6/2 91/6/2 92/6/2
f 92/6/2 91/6/2 93/6/2
f 94/4/2 95/4/2 96/4/2
f 96/4/2 95/4/2 97/4/2
f 98/6/2 99/6/2 100/6/2
f 100/6/2 99/6/2 101/6/2
f 102/6/2 103/6/2 104/6/2
f 104/6/2 103/6/2 105/6/2
f 108/6/3 107/6/3 106/6/3
f 109/6/3 107/6/3 108/6/3
f 112/5/3 111/5/3 110/5/3
f 113/5/3 111/5/3 112/5/3
f 116/6/3 115/6/3 114/6/3
f 117/6/3 115/6/3 116/6/3
f 122/7/3 119/7/3 118/7/3
f 123/4/3 120/4/3 119/4/3
f 123/7/3 119/7/3 122/7/3
f 124/4/3 120/4/3 123/4/3
f 125/4/3 120/4/3 124/4/3
f 127/6/3 122/6/3 121/6/3
f 128/3/3 124/3/3 123/3/3
f 128/1/3 125/1/3 124/1/3
f 129/4/3 120/4/3 125/4/3
f 129/1/3 125/1/3 128/1/3
f 130/6/3 127/6/3 126/6/3
f 130/6/3 122/6/3 127/6/3
f 131/7/3 123/7/3 122/7/3
f 131/6/3 122/6/3 130/6/3
f 132/3/3 128/3/3 123/3/3
f 132/7/3 123/7/3 131/7/3
f 133/2/3 129/2/3 128/2/3
f 133/3/3 128/3/3 132/3/3
f 134/6/3 130/6/3 126/6/3
f 135/8/3 131/8/3 130/8/3
f 135/6/3 130/6/3 134/6/3
f 136/7/3 132/7/3 131/7/3
f 136/8/3 131/8/3 135/8/3
f 137/2/3 129/2/3 133/2/3
f 137/2/3 133/2/3 132/2/3
f 138/4/3 120/4/3 129/4/3
f 138/2/3 129/2/3 137/2/3
f 139/6/3 136/6/3 135/6/3
f 140/7/3 132/7/3 136/7/3
f 140/6/3 136/6/3 139/6/3
f 141/2/3 137/2/3 132/2/3
f 141/7/3 132/7/3 140/7/3
f 142/1/3 138/1/3 137/1/3
f 142/2/3 137/2/3 141/2/3
f 143/4/3 120/4/3 138/4/3
f 143/1/3 138/1/3 142/1/3
f 144/7/3 141/7/3 140/7/3
f 145/4/3 142/4/3 141/4/3
f 145/7/3 141/7/3 144/7/3
f 145/4/3 143/4/3 142/4/3
f 146/4/3 120/4/3 143/4/3
f 146/4/3 143/4/3 145/4/3
f 149/4/3 148/4/3 147/4/3
f 150/4/3 148/4/3 149/4/3
f 153/4/3 152/4/3 151/4/3
f 154/4/3 152/4/3 153/4/3
f 157/4/3 156/4/3 155/4/3
f 158/4/3 156/4/3 157/4/3
f 161/6/3 160/6/3 159/6/3
f 162/6/3 160/6/3 161/6/3
f 165/6/3 164/6/3 163/6/3
f 166/6/3 164/6/3 165/6/3
f 169/6/3 168/6/3 167/6/3
f 170/6/3 168/6/3 169/6/3
f 171/6/4 172/6/4 173/6/4
f 173/6/4 172/6/4 174/6/4
f 175/6/4 176/6/4 177/6/4
f 177/6/4 176/6/4 178/6/4
f 179/4/4 180/4/4 182/4/4
f 182/4/4 180/4/4 183/4/4
f 181/4/4 182/4/4 185/4/4
f 185/4/4 182/4/4 186/4/4
f 183/4/4 184/4/4 187/4/4
f 187/4/4 184/4/4 188/4/4
f 188/4/4 189/4/4 193/4/4
f 193/4/4 189/4/4 194/4/4
f 190/4/4 191/4/4 197/4/4
f 197/4/4 191/4/4 198/4/4
f 192/4/4 193/4/4 199/4/4
f 199/4/4 193/4/4 200/4/4
f 198/4/4 199/4/4 201/4/4
f 201/4/4 199/4/4 202/4/4
f 195/6/4 196/6/4 203/6/4
f 203/6/4 196/6/4 204/6/4
f 205/4/4 206/4/4 208/4/4
f 208/4/4 206/4/4 209/4/4
f 207/4/4 208/4/4 211/4/4
f 211/4/4 208/4/4 212/4/4
f 209/4/4 210/4/4 213/4/4
f 213/4/4 210/4/4 214/4/4
f 212/4/4 213/4/4 215/4/4
f 215/4/4 213/4/4 216/4/4
f 217/4/4 218/4/4 219/4/4
f 219/4/4 218/4/4 220/4/4
f 227/6/5 222/6/5 221/6/5
f 228/5/5 224/5/5 223/5/5
f 229/5/5 224/5/5 228/5/5
f 231/6/5 226/6/5 225/6/5
f 232/6/5 226/6/5 231/6/5
f 234/6/5 229/6/5 228/6/5
f 234/6/5 227/6/5 221/6/5
f 234/6/5 228/6/5 227/6/5
f 235/6/5 229/6/5 234/6/5
f 236/6/5 231/6/5 230/6/5
f 237/6/5 233/6/5 232/6/5
f 238/6/5 236/6/5 230/6/5
f 238/6/5 237/6/5 236/6/5
f 239/6/5 233/6/5 237/6/5
f 239/6/5 237/6/5 238/6/5
f 244/7/5 241/7/5 240/7/5
f 245/7/5 241/7/5 244/7/5
f 246/7/5 243/7/5 242/7/5
f 247/7/5 243/7/5 246/7/5
f 248/4/5 245/4/5 244/4/5
f 249/7/5 246/7/5 245/7/5
f 249/4/5 245/4/5 248/4/5
f 250/4/5 247/4/5 246/4/5
f 250/7/5 246/7/5 249/7/5
f 251/4/5 247/4/5 250/4/5
f 252/4/5 250/4/5 249/4/5
f 253/4/5 250/4/5 252/4/5
f 258/4/5 255/4/5 254/4/5
f 259/4/5 257/4/5 256/4/5
f 260/4/5 258/4/5 254/4/5
f 261/4/5 258/4/5 260/4/5
f 264/4/5 257/4/5 259/4/5
f 265/4/5 257/4/5 264/4/5
f 266/4/5 262/4/5 261/4/5
f 267/4/5 262/4/5 266/4/5
f 268/4/5 264/4/5 263/4/5
f 269/4/5 264/4/5 268/4/5
f 270/4/5 268/4/5 267/4/5
f 271/4/5 268/4/5 270/4/5
f 272/6/6 273/6/6 278/6/6
f 278/6/6 273/6/6 279/6/6
f 274/5/6 275/5/6 280/5/6
f 280/5/6 275/5/6 281/5/6
f 276/6/6 277/6/6 283/6/6
f 283/6/6 277/6/6 284/6/6
f 282/6/6 283/6/6 286/6/6
f 284/6/6 285/6/6 287/6/6
f 282/6/6 286/6/6 288/6/6
f 286/6/6 287/6/6 288/6/6
f 287/6/6 285/6/6 289/6/6
f 288/6/6 287/6/6 289/6/6
f 290/4/6 291/4/6 294/4/6
f 294/4/6 291/4/6 295/4/6
f 292/4/6 293/4/6 298/4/6
f 298/4/6 293/4/6 299/4/6
f 295/4/6 296/4/6 300/4/6
f 300/4/6 296/4/6 301/4/6
f 297/4/6 298/4/6 302/4/6
f 302/4/6 298/4/6 303/4/6
f 301/4/6 302/4/6 304/4/6
f 304/4/6 302/4/6 305/4/6
f 306/4/6 307/4/6 308/4/6
f 308/4/6 307/4/6 309/4/6
f 306/4/6 308/4/6 310/4/6
f 310/4/6 308/4/6 311/4/6
f 309/4/6 307/4/6 312/4/6
f 312/4/6 307/4/6 313/4/6
f 311/4/6 312/4/6 314/4/6
f 314/4/6 312/4/6 315/4/6
f 316/4/6 317/4/6 318/4/6
f 318/4/6 317/4/6 319/4/6
