# MagicaVoxel @ Ephtracy

# material
mtllib player.mtl
usemtl palette

# normals
vn -1 0 0
vn 1 0 0
vn 0 0 1
vn 0 0 -1
vn 0 -1 0
vn 0 1 0

# texcoords
vt 0.0605469 0.5
vt 0.501953 0.5
vt 0.533203 0.5
vt 0.564453 0.5
vt 0.970703 0.5
vt 0.978516 0.5
vt 0.990234 0.5

# verts
v -4 5 -0.5
v -4 5 -3.5
v -4 9 -0.5
v -4 9 -3.5
v -3 4 -0.5
v -3 4 -3.5
v -3 5 1.5
v -3 5 -0.5
v -3 5 -3.5
v -3 6 -3.5
v -3 6 -4.5
v -3 7 1.5
v -3 7 0.5
v -3 9 -0.5
v -3 9 -3.5
v -3 9 -4.5
v -3 10 0.5
v -3 10 -3.5
v -2 0 -0.5
v -2 0 -1.5
v -2 2 0.5
v -2 2 -0.5
v -2 2 -1.5
v -2 2 -2.5
v -2 4 -0.5
v -2 4 -2.5
v -2 5 0.5
v -2 5 -0.5
v -2 5 -3.5
v -2 5 -4.5
v -2 6 -3.5
v -2 6 -4.5
v -2 6 -5.5
v -2 9 -3.5
v -2 9 -4.5
v -2 9 -5.5
v -2 10 -0.5
v -2 10 -3.5
v -2 10 -4.5
v -2 11 -0.5
v -2 11 -3.5
v 0 8 1.5
v 0 8 0.5
v 0 9 1.5
v 0 9 0.5
v 1 0 -0.5
v 1 0 -1.5
v 1 2 -0.5
v 1 2 -1.5
v 2 5 1.5
v 2 5 0.5
v 2 6 0.5
v 2 7 0.5
v 2 8 1.5
v 2 8 0.5
v -2 4 -2.5
v -2 4 -3.5
v -2 5 1.5
v -2 5 0.5
v -2 5 -2.5
v -2 5 -3.5
v -2 6 0.5
v -2 7 1.5
v -2 7 0.5
v -1 0 -0.5
v -1 0 -1.5
v -1 2 -0.5
v -1 2 -1.5
v 2 0 -0.5
v 2 0 -1.5
v 2 2 0.5
v 2 2 -0.5
v 2 2 -1.5
v 2 2 -2.5
v 2 4 0.5
v 2 4 -2.5
v 2 5 -3.5
v 2 5 -4.5
v 2 6 -3.5
v 2 6 -4.5
v 2 6 -5.5
v 2 9 -3.5
v 2 9 -4.5
v 2 9 -5.5
v 2 10 -0.5
v 2 10 -3.5
v 2 10 -4.5
v 2 11 -0.5
v 2 11 -3.5
v 3 4 0.5
v 3 4 -2.5
v 3 5 1.5
v 3 5 0.5
v 3 5 -2.5
v 3 6 -3.5
v 3 6 -4.5
v 3 9 1.5
v 3 9 0.5
v 3 9 -3.5
v 3 9 -4.5
v 3 10 0.5
v 3 10 -3.5
v 4 5 0.5
v 4 5 -3.5
v 4 9 0.5
v 4 9 -3.5
v -3 5 1.5
v -3 7 1.5
v -2 5 1.5
v -2 7 1.5
v 0 8 1.5
v 0 9 1.5
v 2 5 1.5
v 2 8 1.5
v 3 5 1.5
v 3 9 1.5
v -3 7 0.5
v -3 10 0.5
v -2 2 0.5
v -2 5 0.5
v -2 6 0.5
v -2 7 0.5
v -2 8 0.5
v -2 9 0.5
v -1 7 0.5
v -1 8 0.5
v -1 9 0.5
v 0 3 0.5
v 0 5 0.5
v 0 6 0.5
v 0 7 0.5
v 0 8 0.5
v 0 9 0.5
v 1 3 0.5
v 1 5 0.5
v 1 7 0.5
v 1 8 0.5
v 2 2 0.5
v 2 4 0.5
v 2 5 0.5
v 2 6 0.5
v 2 7 0.5
v 2 8 0.5
v 3 4 0.5
v 3 5 0.5
v 3 9 0.5
v 3 10 0.5
v 4 5 0.5
v 4 9 0.5
v -4 5 -0.5
v -4 9 -0.5
v -3 4 -0.5
v -3 5 -0.5
v -3 9 -0.5
v -2 0 -0.5
v -2 2 -0.5
v -2 4 -0.5
v -2 5 -0.5
v -2 10 -0.5
v -2 11 -0.5
v -1 0 -0.5
v -1 2 -0.5
v 1 0 -0.5
v 1 2 -0.5
v 2 0 -0.5
v 2 2 -0.5
v 2 10 -0.5
v 2 11 -0.5
v -2 0 -1.5
v -2 2 -1.5
v -1 0 -1.5
v -1 2 -1.5
v 1 0 -1.5
v 1 2 -1.5
v 2 0 -1.5
v 2 2 -1.5
v -2 2 -2.5
v -2 4 -2.5
v -2 5 -2.5
v 2 2 -2.5
v 2 4 -2.5
v 2 5 -2.5
v 3 4 -2.5
v 3 5 -2.5
v -4 5 -3.5
v -4 9 -3.5
v -3 4 -3.5
v -3 5 -3.5
v -3 6 -3.5
v -3 9 -3.5
v -3 10 -3.5
v -2 4 -3.5
v -2 5 -3.5
v -2 6 -3.5
v -2 9 -3.5
v -2 10 -3.5
v -2 11 -3.5
v 2 5 -3.5
v 2 6 -3.5
v 2 9 -3.5
v 2 10 -3.5
v 2 11 -3.5
v 3 6 -3.5
v 3 9 -3.5
v 3 10 -3.5
v 4 5 -3.5
v 4 9 -3.5
v -3 6 -4.5
v -3 9 -4.5
v -2 5 -4.5
v -2 6 -4.5
v -2 9 -4.5
v -2 10 -4.5
v 2 5 -4.5
v 2 6 -4.5
v 2 9 -4.5
v 2 10 -4.5
v 3 6 -4.5
v 3 9 -4.5
v -2 6 -5.5
v -2 9 -5.5
v 2 6 -5.5
v 2 9 -5.5
v -2 0 -0.5
v -1 0 -0.5
v 1 0 -0.5
v 2 0 -0.5
v -2 0 -1.5
v -1 0 -1.5
v 1 0 -1.5
v 2 0 -1.5
v -2 2 0.5
v 2 2 0.5
v -2 2 -0.5
v -1 2 -0.5
v 1 2 -0.5
v 2 2 -0.5
v -2 2 -1.5
v -1 2 -1.5
v 1 2 -1.5
v 2 2 -1.5
v -2 2 -2.5
v 2 2 -2.5
v 2 4 0.5
v 3 4 0.5
v -3 4 -0.5
v -2 4 -0.5
v -2 4 -2.5
v 2 4 -2.5
v 3 4 -2.5
v -3 4 -3.5
v -2 4 -3.5
v -3 5 1.5
v -2 5 1.5
v 2 5 1.5
v 3 5 1.5
v -2 5 0.5
v 2 5 0.5
v 3 5 0.5
v 4 5 0.5
v -4 5 -0.5
v -3 5 -0.5
v -2 5 -0.5
v -2 5 -2.5
v 2 5 -2.5
v 3 5 -2.5
v -4 5 -3.5
v -3 5 -3.5
v -2 5 -3.5
v 2 5 -3.5
v 4 5 -3.5
v -2 5 -4.5
v 2 5 -4.5
v -3 6 -3.5
v -2 6 -3.5
v 2 6 -3.5
v 3 6 -3.5
v -3 6 -4.5
v -2 6 -4.5
v 2 6 -4.5
v 3 6 -4.5
v -2 6 -5.5
v 2 6 -5.5
v 0 8 1.5
v 2 8 1.5
v 0 8 0.5
v 1 8 0.5
v 2 8 0.5
v -3 7 1.5
v -2 7 1.5
v -3 7 0.5
v -2 7 0.5
v 0 9 1.5
v 3 9 1.5
v 0 9 0.5
v 3 9 0.5
v 4 9 0.5
v -4 9 -0.5
v -3 9 -0.5
v -4 9 -3.5
v -3 9 -3.5
v -2 9 -3.5
v 2 9 -3.5
v 3 9 -3.5
v 4 9 -3.5
v -3 9 -4.5
v -2 9 -4.5
v 2 9 -4.5
v 3 9 -4.5
v -2 9 -5.5
v 2 9 -5.5
v -3 10 0.5
v 3 10 0.5
v -2 10 -0.5
v 2 10 -0.5
v -3 10 -3.5
v -2 10 -3.5
v 2 10 -3.5
v 3 10 -3.5
v -2 10 -4.5
v 2 10 -4.5
v -2 11 -0.5
v 2 11 -0.5
v -2 11 -3.5
v 2 11 -3.5

# faces
f 3/4/1 2/4/1 1/4/1
f 4/4/1 2/4/1 3/4/1
f 8/4/1 6/4/1 5/4/1
f 9/4/1 6/4/1 8/4/1
f 12/4/1 8/4/1 7/4/1
f 13/4/1 8/4/1 12/4/1
f 14/4/1 8/4/1 13/4/1
f 15/4/1 11/4/1 10/4/1
f 16/4/1 11/4/1 15/4/1
f 17/4/1 14/4/1 13/4/1
f 17/4/1 15/4/1 14/4/1
f 18/4/1 15/4/1 17/4/1
f 22/5/1 20/5/1 19/5/1
f 23/5/1 20/5/1 22/5/1
f 25/5/1 22/5/1 21/5/1
f 25/5/1 24/5/1 23/5/1
f 25/5/1 23/5/1 22/5/1
f 26/5/1 24/5/1 25/5/1
f 27/5/1 25/5/1 21/5/1
f 28/5/1 25/5/1 27/5/1
f 31/4/1 30/4/1 29/4/1
f 32/4/1 30/4/1 31/4/1
f 35/4/1 33/4/1 32/4/1
f 36/4/1 33/4/1 35/4/1
f 38/4/1 35/4/1 34/4/1
f 39/4/1 35/4/1 38/4/1
f 40/4/1 38/4/1 37/4/1
f 41/4/1 38/4/1 40/4/1
f 44/4/1 43/4/1 42/4/1
f 45/4/1 43/4/1 44/4/1
f 48/5/1 47/5/1 46/5/1
f 49/5/1 47/5/1 48/5/1
f 52/4/1 51/4/1 50/4/1
f 53/4/1 52/4/1 50/4/1
f 54/4/1 53/4/1 50/4/1
f 55/4/1 53/4/1 54/4/1
f 56/4/2 57/4/2 60/4/2
f 60/4/2 57/4/2 61/4/2
f 58/4/2 59/4/2 62/4/2
f 58/4/2 62/4/2 63/4/2
f 63/4/2 62/4/2 64/4/2
f 65/5/2 66/5/2 67/5/2
f 67/5/2 66/5/2 68/5/2
f 69/5/2 70/5/2 72/5/2
f 72/5/2 70/5/2 73/5/2
f 71/5/2 72/5/2 75/5/2
f 73/5/2 74/5/2 75/5/2
f 72/5/2 73/5/2 75/5/2
f 75/5/2 74/5/2 76/5/2
f 77/4/2 78/4/2 79/4/2
f 79/4/2 78/4/2 80/4/2
f 80/4/2 81/4/2 83/4/2
f 83/4/2 81/4/2 84/4/2
f 82/4/2 83/4/2 86/4/2
f 86/4/2 83/4/2 87/4/2
f 85/4/2 86/4/2 88/4/2
f 88/4/2 86/4/2 89/4/2
f 90/4/2 91/4/2 93/4/2
f 93/4/2 91/4/2 94/4/2
f 92/4/2 93/4/2 97/4/2
f 97/4/2 93/4/2 98/4/2
f 95/4/2 96/4/2 99/4/2
f 99/4/2 96/4/2 100/4/2
f 98/4/2 99/4/2 101/4/2
f 101/4/2 99/4/2 102/4/2
f 103/4/2 104/4/2 105/4/2
f 105/4/2 104/4/2 106/4/2
f 109/4/3 108/4/3 107/4/3
f 110/4/3 108/4/3 109/4/3
f 114/4/3 112/4/3 111/4/3
f 115/4/3 114/4/3 113/4/3
f 116/4/3 112/4/3 114/4/3
f 116/4/3 114/4/3 115/4/3
f 122/4/3 118/4/3 117/4/3
f 123/4/3 118/4/3 122/4/3
f 124/4/3 118/4/3 123/4/3
f 125/3/3 122/3/3 121/3/3
f 125/1/3 123/1/3 122/1/3
f 126/2/3 124/2/3 123/2/3
f 126/1/3 123/1/3 125/1/3
f 127/4/3 118/4/3 124/4/3
f 127/2/3 124/2/3 126/2/3
f 128/5/3 120/5/3 119/5/3
f 129/6/3 121/6/3 120/6/3
f 129/5/3 120/5/3 128/5/3
f 130/3/3 125/3/3 121/3/3
f 130/6/3 121/6/3 129/6/3
f 131/2/3 126/2/3 125/2/3
f 131/3/3 125/3/3 130/3/3
f 132/4/3 127/4/3 126/4/3
f 132/2/3 126/2/3 131/2/3
f 133/4/3 118/4/3 127/4/3
f 133/4/3 127/4/3 132/4/3
f 134/5/3 128/5/3 119/5/3
f 134/7/3 129/7/3 128/7/3
f 135/6/3 130/6/3 129/6/3
f 135/7/3 129/7/3 134/7/3
f 136/2/3 132/2/3 131/2/3
f 136/2/3 131/2/3 130/2/3
f 137/2/3 132/2/3 136/2/3
f 138/5/3 134/5/3 119/5/3
f 138/5/3 135/5/3 134/5/3
f 139/5/3 135/5/3 138/5/3
f 140/6/3 130/6/3 135/6/3
f 140/5/3 135/5/3 139/5/3
f 141/2/3 136/2/3 130/2/3
f 141/6/3 130/6/3 140/6/3
f 142/1/3 137/1/3 136/1/3
f 142/2/3 136/2/3 141/2/3
f 143/1/3 137/1/3 142/1/3
f 144/4/3 140/4/3 139/4/3
f 145/4/3 140/4/3 144/4/3
f 146/4/3 118/4/3 133/4/3
f 147/4/3 118/4/3 146/4/3
f 148/4/3 146/4/3 145/4/3
f 149/4/3 146/4/3 148/4/3
f 153/4/3 151/4/3 150/4/3
f 154/4/3 151/4/3 153/4/3
f 157/4/3 153/4/3 152/4/3
f 158/4/3 153/4/3 157/4/3
f 161/5/3 156/5/3 155/5/3
f 162/5/3 156/5/3 161/5/3
f 165/5/3 164/5/3 163/5/3
f 166/5/3 164/5/3 165/5/3
f 167/4/3 160/4/3 159/4/3
f 168/4/3 160/4/3 167/4/3
f 169/5/4 170/5/4 171/5/4
f 171/5/4 170/5/4 172/5/4
f 173/5/4 174/5/4 175/5/4
f 175/5/4 174/5/4 176/5/4
f 177/5/4 178/5/4 180/5/4
f 178/5/4 179/5/4 180/5/4
f 180/5/4 179/5/4 181/5/4
f 181/5/4 179/5/4 182/5/4
f 181/4/4 182/4/4 183/4/4
f 183/4/4 182/4/4 184/4/4
f 185/4/4 186/4/4 188/4/4
f 188/4/4 186/4/4 189/4/4
f 189/4/4 186/4/4 190/4/4
f 187/4/4 188/4/4 192/4/4
f 188/4/4 189/4/4 192/4/4
f 192/4/4 189/4/4 193/4/4
f 193/4/4 189/4/4 194/4/4
f 190/4/4 191/4/4 195/4/4
f 195/4/4 191/4/4 196/4/4
f 196/4/4 197/4/4 201/4/4
f 201/4/4 197/4/4 202/4/4
f 198/4/4 199/4/4 203/4/4
f 200/4/4 201/4/4 204/4/4
f 204/4/4 201/4/4 205/4/4
f 198/4/4 203/4/4 206/4/4
f 203/4/4 204/4/4 206/4/4
f 206/4/4 204/4/4 207/4/4
f 208/4/4 209/4/4 211/4/4
f 211/4/4 209/4/4 212/4/4
f 210/4/4 211/4/4 214/4/4
f 214/4/4 211/4/4 215/4/4
f 212/4/4 213/4/4 216/4/4
f 216/4/4 213/4/4 217/4/4
f 215/4/4 216/4/4 218/4/4
f 218/4/4 216/4/4 219/4/4
f 220/4/4 221/4/4 222/4/4
f 222/4/4 221/4/4 223/4/4
f 228/5/5 225/5/5 224/5/5
f 229/5/5 225/5/5 228/5/5
f 230/5/5 227/5/5 226/5/5
f 231/5/5 227/5/5 230/5/5
f 234/5/5 233/5/5 232/5/5
f 235/5/5 233/5/5 234/5/5
f 236/5/5 233/5/5 235/5/5
f 237/5/5 233/5/5 236/5/5
f 239/5/5 236/5/5 235/5/5
f 240/5/5 236/5/5 239/5/5
f 242/5/5 239/5/5 238/5/5
f 242/5/5 241/5/5 240/5/5
f 242/5/5 240/5/5 239/5/5
f 243/5/5 241/5/5 242/5/5
f 248/4/5 247/4/5 246/4/5
f 249/4/5 245/4/5 244/4/5
f 250/4/5 245/4/5 249/4/5
f 251/4/5 248/4/5 246/4/5
f 252/4/5 248/4/5 251/4/5
f 257/4/5 254/4/5 253/4/5
f 258/4/5 256/4/5 255/4/5
f 259/4/5 256/4/5 258/4/5
f 262/4/5 257/4/5 253/4/5
f 263/4/5 257/4/5 262/4/5
f 266/4/5 260/4/5 259/4/5
f 267/4/5 262/4/5 261/4/5
f 268/4/5 262/4/5 267/4/5
f 269/6/5 265/6/5 264/6/5
f 270/4/5 266/4/5 265/4/5
f 270/6/5 265/6/5 269/6/5
f 271/4/5 260/4/5 266/4/5
f 271/4/5 266/4/5 270/4/5
f 272/4/5 270/4/5 269/4/5
f 273/4/5 270/4/5 272/4/5
f 278/4/5 275/4/5 274/4/5
f 279/4/5 275/4/5 278/4/5
f 280/4/5 277/4/5 276/4/5
f 281/4/5 277/4/5 280/4/5
f 282/4/5 280/4/5 279/4/5
f 283/4/5 280/4/5 282/4/5
f 286/4/5 285/4/5 284/4/5
f 287/4/5 285/4/5 286/4/5
f 288/4/5 285/4/5 287/4/5
f 289/4/6 290/4/6 291/4/6
f 291/4/6 290/4/6 292/4/6
f 293/4/6 294/4/6 295/4/6
f 295/4/6 294/4/6 296/4/6
f 298/4/6 299/4/6 300/4/6
f 300/4/6 299/4/6 301/4/6
f 296/4/6 297/4/6 304/4/6
f 304/4/6 297/4/6 305/4/6
f 301/4/6 302/4/6 306/4/6
f 306/4/6 302/4/6 307/4/6
f 303/4/6 304/4/6 308/4/6
f 308/4/6 304/4/6 309/4/6
f 307/4/6 308/4/6 310/4/6
f 310/4/6 308/4/6 311/4/6
f 312/4/6 313/4/6 314/4/6
f 314/4/6 313/4/6 315/4/6
f 312/4/6 314/4/6 316/4/6
f 316/4/6 314/4/6 317/4/6
f 315/4/6 313/4/6 318/4/6
f 318/4/6 313/4/6 319/4/6
f 317/4/6 318/4/6 320/4/6
f 320/4/6 318/4/6 321/4/6
f 322/4/6 323/4/6 324/4/6
f 324/4/6 323/4/6 325/4/6
