# MagicaVoxel @ Ephtracy

# material
mtllib tar.mtl
usemtl palette

# normals
vn -1 0 0
vn 1 0 0
vn 0 0 1
vn 0 0 -1
vn 0 -1 0
vn 0 1 0

# texcoords
vt 0.556641 0.5
vt 0.646484 0.5

# verts
v -5 0 5
v -5 0 -5
v -5 9 5
v -5 9 -5
v 5 0 5
v 5 0 -5
v 5 9 5
v 5 9 -5
v -5 0 5
v -5 9 5
v -3 8 5
v -3 9 5
v -1 8 5
v -1 9 5
v 5 0 5
v 5 9 5
v -5 0 -5
v -5 9 -5
v 5 0 -5
v 5 9 -5
v -5 0 5
v 5 0 5
v -5 0 -5
v 5 0 -5
v -5 9 5
v -3 9 5
v -1 9 5
v 5 9 5
v -3 9 3
v -1 9 3
v -1 9 2
v 1 9 2
v 1 9 1
v 4 9 1
v -1 9 -0
v 1 9 -0
v -4 9 -1
v -1 9 -1
v 1 9 -2
v 4 9 -2
v -4 9 -4
v -1 9 -4
v -5 9 -5
v 5 9 -5

# faces
f 3/2/1 2/2/1 1/2/1
f 4/2/1 2/2/1 3/2/1
f 5/2/2 6/2/2 7/2/2
f 7/2/2 6/2/2 8/2/2
f 11/2/3 10/2/3 9/2/3
f 12/2/3 10/2/3 11/2/3
f 13/2/3 11/2/3 9/2/3
f 13/1/3 12/1/3 11/1/3
f 14/1/3 12/1/3 13/1/3
f 15/2/3 13/2/3 9/2/3
f 15/2/3 14/2/3 13/2/3
f 16/2/3 14/2/3 15/2/3
f 17/2/4 18/2/4 19/2/4
f 19/2/4 18/2/4 20/2/4
f 23/2/5 22/2/5 21/2/5
f 24/2/5 22/2/5 23/2/5
f 25/2/6 26/2/6 29/2/6
f 26/1/6 27/1/6 29/1/6
f 27/2/6 28/2/6 30/2/6
f 29/1/6 27/1/6 30/1/6
f 29/2/6 30/2/6 31/2/6
f 30/2/6 28/2/6 31/2/6
f 31/2/6 28/2/6 32/2/6
f 31/1/6 32/1/6 33/1/6
f 32/2/6 28/2/6 33/2/6
f 33/2/6 28/2/6 34/2/6
f 29/2/6 31/2/6 35/2/6
f 31/1/6 33/1/6 35/1/6
f 33/1/6 34/1/6 35/1/6
f 35/1/6 34/1/6 36/1/6
f 25/2/6 29/2/6 37/2/6
f 29/2/6 35/2/6 37/2/6
f 35/2/6 36/2/6 37/2/6
f 37/2/6 36/2/6 38/2/6
f 36/1/6 34/1/6 39/1/6
f 38/2/6 36/2/6 39/2/6
f 34/2/6 28/2/6 40/2/6
f 39/1/6 34/1/6 40/1/6
f 37/1/6 38/1/6 41/1/6
f 25/2/6 37/2/6 41/2/6
f 38/2/6 39/2/6 42/2/6
f 41/1/6 38/1/6 42/1/6
f 39/2/6 40/2/6 42/2/6
f 25/2/6 41/2/6 43/2/6
f 41/2/6 42/2/6 43/2/6
f 40/2/6 28/2/6 44/2/6
f 43/2/6 42/2/6 44/2/6
f 42/2/6 40/2/6 44/2/6
